# xmcd CD database file
#
# Track frame offsets:
#	150
#	10087
#	21950
#	35837
#	48265
#	61932
#	74032
#	83982
#	95395
#	106832
#	118155
#	128702
#
# Disc length: 1915 seconds
#
# Revision: 0
# Processed by: cddbd v1.4b41PL2 Copyright (c) Steve Scherf et al.
# Submitted via: Feurio! 1.61 - http://www.feurio.com
#
DISCID=a007790c
DTITLE=Various Artist - 24 Country Classics [CD 2)
DYEAR=1900
DGENRE=
TTITLE0=Carl Perkins - This Old House-
TTITLE1=Johnny Lee - Ramblin' Rose-
TTITLE2=Barbara Fairchild - Crazy Love-
TTITLE3=Freddie Fender - Wasted Days and Wasted Nights-
TTITLE4=Faron Young - Four In The Morning-
TTITLE5=Willie Nelson - Is There Something On Your Mind-
TTITLE6=Donna Fargo - Sticks and Stones-
TTITLE7=Stonewall Jackson - Waterloo-
TTITLE8=Roy Drusky - Blue Eyes Cryin' In The Rain-
TTITLE9=Razzy Baily - 9.999.999 Tears-
TTITLE10=Ferlin Husky - Wings Of A Dove-
TTITLE11=Anne Murray - Both Sides Now-
EXTD=Rams Horn-1993 -(RHR 01-2113 PC 01)
EXTT0=
EXTT1=
EXTT2=
EXTT3=
EXTT4=
EXTT5=
EXTT6=
EXTT7=
EXTT8=
EXTT9=
EXTT10=
EXTT11=
PLAYORDER=
